<svg version="1" xmlns="http://www.w3.org/2000/svg" width="853.333" height="853.333" viewBox="0 0 640.000000 640.000000"><path d="M427 53v53h106V0H427v53zm97 .5V97h-88V10h88v43.5zM33.3 108.5c-11.7 3.2-22.1 11.2-27.6 21.3-6 11-5.7-3.2-5.7 243.4 0 162.2.3 227.2 1.1 231 3.6 17 17.6 31.1 34.7 34.7 7.5 1.6 560.9 1.6 568.4 0 17.1-3.6 31.1-17.7 34.7-34.7.8-3.8 1.1-68.8 1.1-231 0-197.9-.2-226.5-1.5-232.1-3.9-16.3-15.7-28.3-32.2-32.6-8.4-2.2-564.9-2.1-573 0zm571.4 9.9c12.4 3.3 21.9 13.6 24.2 26 1.6 8.6 1.5 450.4 0 457.8-3 14.1-13.1 24.2-26.7 26.8-4 .8-87.7 1-286.2.8l-280.5-.3-5.5-2.8c-7.6-4-13.3-9.8-16.7-17.1l-2.8-6.1-.3-226c-.2-162 0-227.8.8-232.5 2.2-12.6 11.6-23.2 23.8-26.5 7.3-2 562.4-2.1 569.9-.1z"/><path d="M398 213.5V269h164V158H398v55.5zM184.5 264.1c-17.7 2.1-37 8.4-52.1 17.1C59.5 323 40.8 419 92.9 484.9c20 25.4 47.6 42.3 80.4 49.2 14.5 3.1 38.9 3.1 53.4 0 32.8-6.9 60.4-23.8 80.4-49.2 39.8-50.3 39.5-121-.7-170.7C281.1 282.9 245 265 204 263.5c-6.3-.2-15.1 0-19.5.6zm37.3 7.9c23.4 3.8 48.8 16.5 67 33.4 19.8 18.5 34 44.8 39.4 72.6 1.6 8.4 1.6 35.6 0 44-2.1 10.8-7.1 25.8-11.7 35.2-6.5 13-13.7 23-25 34.4-18.3 18.4-39.9 30.1-65.8 35.5-14.4 3.1-37 3.1-51.4 0C104 512.3 59.1 445.2 72.5 375c10.5-54.5 57.3-97.7 112.6-103.9 9.2-1.1 27.2-.6 36.7.9z"/><path d="M181.4 346.8c-9.2 3.2-15.1 7-22 14.1-10.5 10.7-15.4 22.9-15.5 38.6-.1 14.3 3.8 26 12 35.8 12 14.4 25.5 20.7 44.1 20.7 16.3 0 28.2-4.7 39.2-15.5 13-12.7 18.4-28 16.7-47-2-21.4-16.4-39.4-37.3-46.7-6.9-2.4-9.7-2.8-18.6-2.8-8.9 0-11.7.4-18.6 2.8zm35.8 6.1c13.7 5.3 25.3 16.8 30.1 29.9 2.5 7.2 3.4 20.6 1.7 28.1-2.5 11.6-11 23.9-21.6 31.2-15 10.3-39.8 10.3-54.8 0-10.6-7.3-19.1-19.6-21.6-31.2-1.7-7.5-.8-20.9 1.7-28.1 5.3-14.6 18.9-26.9 34.4-31.3 7.6-2.1 22.6-1.4 30.1 1.4z"/></svg>